/* XPM */
static char *b3d8e3d51e6c4d678b0e478a999a861bol1yFOAyjUSjJqsN[] = {
/* columns rows colors chars-per-pixel */
"60 60 63 1 ",
"  c None",
". c #015801",
"X c #015901",
"o c #015A01",
"O c #015B01",
"+ c #015D01",
"@ c #016001",
"# c #016301",
"$ c #016701",
"% c #006D00",
"& c #007600",
"* c #007700",
"= c #007800",
"- c #007B00",
"; c #007E00",
": c #008000",
"> c #008100",
", c #008200",
"< c #008300",
"1 c #008400",
"2 c #008600",
"3 c #008700",
"4 c #008900",
"5 c #008D00",
"6 c #009200",
"7 c #009A00",
"8 c #009F00",
"9 c #00A000",
"0 c #00A100",
"q c #00A200",
"w c #00A300",
"e c #00A500",
"r c #00A800",
"t c #00AA00",
"y c #00AB00",
"u c #00AC00",
"i c #00AD00",
"p c #09AF00",
"a c #0CB000",
"s c #0FB100",
"d c #10B100",
"f c #11B100",
"g c #31BB00",
"h c #32BC00",
"j c #33BC00",
"k c #34BC00",
"l c #35BC00",
"z c #35BD00",
"x c #39BE01",
"c c #3EC002",
"v c #42C203",
"b c #44C203",
"n c #46C304",
"m c #56C906",
"M c #62CD09",
"N c #69D00A",
"B c #6ED20B",
"V c #72D40C",
"C c #75D50C",
"Z c #76D50D",
"A c #77D50D",
"S c #79D60D",
"D c #7AD60D",
/* pixels */
"                                                            ",
"                                                            ",
"                                                            ",
"                                           u                ",
"                                          uu                ",
"                                         uu                 ",
"                                        uuu                 ",
"                                       uuuu                 ",
"                                       uuu                  ",
"                                      uuuu                  ",
"                                     uuuuu                  ",
"                                    uuuuu                   ",
"                                    uuuuu                   ",
"                                   uuuuuu                   ",
"                                   uuuuuu                   ",
"                                  uuuuuu                    ",
"                                  uuuuuu                    ",
"        j                        uuuuuuu           >        ",
"        jj                       uuuuuu           >>        ",
"        jjjj                    uuuuuuu         >>>>        ",
"         jjjj                   uuuuuuu        >>>>         ",
"         jjjjj                 uuuuuuuu       >>>>>         ",
"          jjjjj                uuuuuuuu      >>>>>          ",
"          jjjjj                uuuuuuu       >>>>>          ",
"          jjjjjj              uuuuuuuu      >>>>>>          ",
"           jjjjjj             uuuuuuuu     >>>>>>           ",
"           jjjjjj             uuuuuuuu     >>>>>>           ",
"           jjjjjjj           uuuuuuuuu    >>>>>>>           ",
"            jjjjjjj          uuuuuuuu    >>>>>>>            ",
"            jjjjjjj          uuuuuuuu    >>>>>>>            ",
"            jjjjjjjj        uuuuuuuuu   >>>>>>>>            ",
"            jjjjjjjj        uuuuuuuuu   >>>>>>>>            ",
"             jjjzgzgz       uuuuuuuuu  >>>>>>>>             ",
"             jjjgzgzj       uuuuuuuuu  >>>>>>>>             ",
" SS          jjjzgzgj       uuuuuuuu   >>>>>>>>          XX ",
" SSSS        jjjgzgzjj     uuuuuuuuu  >>>>>>>>>        XXXX ",
"  SSSS        jjzgzgzg     uuuuuuuuu  >>>>>>>>        XXXX  ",
"  SSSSSS      jjgzgzgz     uuuuuuuuu  >>>>>>>>      XXXXXX  ",
"   SSSSSS     jjzgzgzgg    uuuuuuuuu >>>>>>>>>     XXXXXX   ",
"   SSSSSSS    jjgzgzgzz    uuuuuuuuu >>>>>>>>>    XXXXXXX   ",
"    SSSSSSS   jjgzgzgzg   uuuuuuuuuu >>>>>>>>>   XXXXXXX    ",
"    SSSSSSSS   jzgzgzgzg  uuuuuuuuuu>>>>>>>>>   XXXXXXXX    ",
"    SSSSSSSS   jgzgzgzgz  uuuuuuuuut;>>>>>>>>   XXXXXXXX    ",
"     SSSSSSSS  jzgzgzgzg  uuuuuuuuuw>>>>>>>>>  XXXXXXXX     ",
"     SSSSSSSS  jgzgzgzgz  uuuuuuuuu7>>>>>>>>>  XXXXXXXX     ",
"     SSSSSSSSS jzgzgzgzg  uuuuuuuuu6;>>>>>>>> XXXXXXXXX     ",
"      SSSSSSSS ggzgzgzgzz uuuuuuuuu5>>>>>>>>> XXXXXXXX      ",
"      SSSSSSSSSzzgzgzgzgl uuuuuuuut5>>>>>>>>>XXXXXXXXX      ",
"      SSSSSSSSSbjzjjjjjjl uuuuuuuut2>>>>>>>>=XXXXXXXXX      ",
"      SSSSSSSSSmjgjjjjjjzpuuuuuuuut2>>>>>>>>%XXXXXXXXX      ",
"      SSSSSSSSSMjjjjjjjjzpuuuuuuuue2>>>>>>>>$XXXXXXXXX      ",
"      SSSSSSSSSNzjjjjjjjjduuuuuuuue>>>>>>>>;@XXXXXXXXX      ",
"       SSSSSSSSBxjjjjjjjjduuuuuuuuw>>>>>>>>;@XXXXXXXX       ",
"       SSSSSSSSVcjjjjjjjjduuuuuuuuw>>>>>>>>;+XXXXXXXX       ",
"       SSSSSSSSAvjjjjjjjjsuuuuuuuuw>>>>>>>>=+XXXXXXXX       ",
"       SSSSSSSSAvjjjjjjjjduuuuuuuuw>>>>>>>>=XXXXXXXXX       ",
"       SSSSSSSSAnjjjjjjjjduuuuuuuuw>>>>>>>>*XXXXXXXXX       ",
"       SSSSSSSSAnjjjjjjjjduuuuuuuuw>>>>>>>>*XXXXXXXXX       ",
"                                                            ",
"                                                            "
};
