/* XPM */
static char *result[] = {
/* columns rows colors chars-per-pixel */
"60 60 159 2 ",
"   c #010101",
".  c #0C0505",
"X  c #0A0804",
"o  c #0B0A0B",
"O  c #070809",
"+  c #110A07",
"@  c #140A0A",
"#  c #1D0D0D",
"$  c #171309",
"%  c #19140A",
"&  c #0C0F11",
"*  c #0D1114",
"=  c #111111",
"-  c #121619",
";  c #15191C",
":  c #1B1A1A",
">  c #241D0F",
",  c #231111",
"<  c #2C1515",
"1  c #361A1A",
"2  c #3B1B1B",
"3  c #321817",
"4  c #2E2410",
"5  c #342A15",
"6  c #382D17",
"7  c #322712",
"8  c #1D2429",
"9  c #222121",
"0  c #20272C",
"q  c #25282B",
"w  c #2C2C2B",
"e  c #282727",
"r  c #2E2F31",
"t  c #262E34",
"y  c #2B353D",
"u  c #323434",
"i  c #3D3C3C",
"p  c #421F1F",
"a  c #42201F",
"s  c #44371C",
"d  c #442121",
"f  c #492323",
"g  c #532827",
"h  c #5C2D2C",
"j  c #532827",
"k  c #612F2E",
"l  c #63302F",
"z  c #663131",
"x  c #6D3332",
"c  c #723736",
"v  c #743837",
"b  c #7B3B3A",
"n  c #763938",
"m  c #564523",
"M  c #5E4D2A",
"N  c #765F30",
"B  c #7C6333",
"V  c #2E3941",
"C  c #313C43",
"Z  c #38444C",
"A  c #394650",
"S  c #434343",
"D  c #4C4C4C",
"F  c #44535D",
"G  c #535453",
"H  c #595A5A",
"J  c #605F5C",
"K  c #495A64",
"L  c #4A5B66",
"P  c #4E606C",
"I  c #51626F",
"U  c #5B6F7C",
"Y  c #566A76",
"T  c #646464",
"R  c #6A6A6A",
"E  c #7B7B7B",
"W  c gray44",
"Q  c #813E3D",
"!  c #85403F",
"~  c #977A3E",
"^  c #864140",
"/  c #894241",
"(  c #914645",
")  c #974948",
"_  c #9B4B4A",
"`  c #964947",
"'  c #A44F4E",
"]  c #A6514F",
"[  c #AB5351",
"{  c #B35655",
"}  c #BB5A59",
"|  c #846E43",
" . c #9C7E41",
".. c #837E76",
"X. c #C35E5D",
"o. c #C7605F",
"O. c #CD6362",
"+. c #D16564",
"@. c #D76867",
"#. c #D86867",
"$. c #DC6A69",
"%. c #E26D6C",
"&. c #E9706F",
"*. c #E7706E",
"=. c #ED7371",
"-. c #F37573",
";. c #F77977",
":. c #F97977",
">. c #FE7B79",
",. c #F87775",
"<. c #A68645",
"1. c #AB8A47",
"2. c #BA974D",
"3. c #858077",
"4. c #C59F51",
"5. c #C8A152",
"6. c #D6AC57",
"7. c #DDB35B",
"8. c #E2B65D",
"9. c #CDAF72",
"0. c #CEB073",
"q. c #DDBE7D",
"w. c #F7C766",
"e. c #FFCE67",
"r. c #FFCD69",
"t. c #F2C866",
"y. c #FED06B",
"u. c #647989",
"i. c #6C8393",
"p. c #758EA0",
"a. c #7891A4",
"s. c #7791A3",
"d. c #858585",
"f. c #898989",
"g. c #949494",
"h. c #9D9D9D",
"j. c #819EB2",
"k. c #86A3B7",
"l. c #89A6BB",
"z. c #8BA9BE",
"x. c #A6A6A6",
"c. c #ACACAC",
"v. c #BBBBBB",
"b. c gray70",
"n. c #FFDF95",
"m. c #CEC5B1",
"M. c #DDD3BD",
"N. c #8DABC0",
"B. c #C6C6C6",
"V. c #CCCCCC",
"C. c #D5D5D5",
"Z. c #DBDBDB",
"A. c #FFF6DA",
"S. c #E6E6E6",
"D. c #ECECEC",
"F. c #F4F4F4",
"G. c #FEFEFE",
"H. c #F6F7F8",
"J. c None",
/* pixels */
"J.J.J.J.J.J.J.J.J.J.J.J.J.J.J.J.J.J.J.J.J.J.J.J.J.J.J.J.J.J.J.J.J.J.J.J.J.J.J.J.J.J.J.J.J.J.J.J.J.J.J.J.J.J.J.J.        ",
"J.J.J.J.J.J.J.J.J.J.J.J.J.J.J.J.J.J.J.J.J.J.J.J.J.J.J.J.J.J.J.J.J.J.J.J.J.J.J.J.J.J.J.J.J.J.J.J.J.J.J.J.J.              ",
"J.J.J.J.J.J.J.J.J.J.J.J.J.J.J.J.J.J.J.J.J.J.J.J.J.J.J.J.J.J.J.J.J.J.J.J.J.J.J.J.J.J.J.J.J.J.J.J.J.          $ 4 s 7 X   ",
"J.J.J.J.J.J.J.J.J.J.J.J.J.J.J.J.J.J.J.J.J.J.J.J.J.J.J.J.J.J.J.J.J.J.J.J.J.J.J.J.J.J.J.J.J.        X $ 4 s M B  .2.B $   ",
"J.J.J.J.J.J.J.J.J.J.J.    O o o O O O o X O o X O O O O O o O o X o O o O o O o o O o O     o > 5 m N  .2.7.w.e.e. .$   ",
"J.J.J.J.J.J.J.J.J.J.J.    w i S S S S S S S S S S S A m S S S S S S S S S S S S S S S w o $ m <.4.8.w.r.y.y.e.e.w.~ $   ",
"J.J.J.J.J.J.J.J.J.J.J.  = f.C.Z.Z.Z.Z.Z.Z.Z.Z.Z.Z.Z.Z.Z.Z.Z.Z.Z.Z.Z.Z.Z.Z.Z.Z.Z.Z.Z.Z.f.w 4  .t.r.r.r.r.r.r.e.r.w.~ $   ",
"J.J.J.J.J.J.J.J.J.J.J.  o h.D.G.G.H.G.H.G.H.G.H.H.G.G.H.H.G.H.G.H.G.H.G.H.G.H.H.G.G.G.x.r 7 <.e.r.r.r.r.r.r.r.r.w.~ $   ",
"J.J.J.J.J.J.J.J.J.J.    O G d.f.f.d.d.d.d.f.f.f.f.f.d.d.d.f.f.d.d.d.f.d.f.f.f.g.b.F.G.x.t 4 <.y.r.r.r.r.r.r.r.r.w.~ @   ",
"                          = ; : : : : : : : : : : ; : : : : : , : : : : : : ; < H Z.H.x.r 4 <.r.r.r.r.r.r.r.r.r.w.~ %   ",
"    , 2 2 2 2 2 p 6 2 2 2 2 1 1 1 2 2 2 2 1 1 1 2 2 2 2 1 2 2 2 2 2 1 1 2 2 #   u B.H.x.r 4 <.r.r.r.r.r.r.r.r.r.w.~ $   ",
"  + b O.+.O.+.O.O.O.O.+.O.+.O.O.O.+.O.O.+.+.O.O.O.O.O.O.O.O.O.O.O.O.+.O.O.O.c @ u B.H.x.r 4 <.y.r.r.r.r.r.r.r.r.w.~ $   ",
"  @ ) -.>.-.=.=.&.=.,.:.:.,.,.,.:.>.:.,.-.,.:.:.,.-.;.>.:.-.&.&.&.&.&.-.:.:.! # u B.H.x.r 4 <.r.r.r.r.r.r.r.r.r.w.~ $   ",
"  @ ) ,.#.! l k k x _ =.:.[ Q [ ,.>.:.{ Q ] ;.=._ Q o.>.$.^ k h k h h b $.:.) # u B.H.x.r 4 <.r.r.r.r.r.r.r.r.r.w.~ %   ",
"  @ _ -.{ < + + . # k %.-.n < g X.>.O.g , n =.%.g < ) -.o.f @ . . . + 2 X.,.( , u B.H.x.r 4 <.r.r.r.r.r.r.r.r.r.w.~ %   ",
"  @ _ -.' + + f k z ) =.,.) < @ x X.n @ , ) -.@.2 o ^ -.$.^ k ,   , h Q #.:.( , u B.H.x.t 4 <.r.r.r.r.r.r.r.r.r.w.~ %   ",
"  # _ =.] @ < [ %.*.,.>.>.%.v @ # h , @ c @.>.@.p o ^ -.>.-.#.h @ j O.-.>.>.( # u B.H.x.r 4 <.r.r.r.r.r.r.r.r.r.w.~ $   ",
"  @ _ =.' @ < _ O.@.&.>.>.>.X.h .     j O.>.>.@.p @ / =.>.>.=.z + h %.:.>.>.) # u B.H.x.r 4 <.r.r.r.r.r.r.r.r.r.w.~ $   ",
"  @ ) -.] @ . < < f ) :.>.>.;._ ,   # _ =.>.>.@.2 @ ^ -.>.>.=.k @ h %.>.:.>.( # u B.H.x.r 4 <.e.r.r.r.r.r.r.r.r.w.~ $   ",
"  @ _ =.] @   + @ 3 / :.>.>.=.^ @   o ^ %.>.>.@.p @ / =.>.>.=.k + h %.>.>.>.( # u B.H.x.r 4 <.r.r.e.r.r.r.r.r.r.w.~ $   ",
"  @ _ -.' @ , v ) ' +.:.>.>.[ p . # O 2 [ ;.>.@.2 @ / =.>.>.-.k @ h $.:.:.,.( # u B.H.x.r 7 <.r.r.r.r.r.r.r.r.r.w.~ %   ",
"  @ _ =.' @ 3 { =.-.:.>.>.O.h @ 3 n 1 @ h O.>.#.p @ ^ -.>.>.=.k @ h %.:.:.,.( # u B.H.x.r 4 <.r.r.r.r.r.r.r.r.r.w.~ %   ",
"  @ _ =.' @ # b _ ' X.,.=.b # , / $.( , @ b %.#.2 + / -.>.:.-.k @ h %.>.>.>.( # u B.H.x.r 4 <.r.r.r.r.e.e.r.e.y.w.~ $   ",
"  @ _ =.[ @ . + @ # k %.o.2 @ x $.>.%.z @ p } #.d # / -.>.:.-.z @ k %.>.:.>.( # u B.H.x.r 4 <.r.r.r.r.r.e.e.e.y.w.~ %   ",
"  @ _ -.O.h 2 2 1 p Q *.@.l z } >.>.>.X.z x O.=.Q h { ,.>.>.,.) h ( -.>.>.>.( # u B.H.c.u 7 <.r.r.r.r.r.r.r.r.r.w.~ %   ",
"  @ ) >.;.$.O.O.O.O.%.>.>.#.$.;.0.>.>.;.$.#.-.>.%.#.=.>.>.>.>.=.#.*.>.>.0.>.( # u B.H.C...| 6.r.r.r.r.r.r.r.r.r.w.~ %   ",
"  @ / $.%.%.%.%.%.%.%.%.$.%.%.*.&.&.%.%.%.%.%.%.%.%.%.%.$.%.%.%.%.*.$.%.&.$.Q # u B.H.H.M.q.w.r.r.r.r.r.r.r.r.r.w.~ $   ",
"  . d x v x v v v v v v v c x x x x x x c x x x c c c x x x x c x x c x Q x p . u B.H.G.A.n.r.r.r.r.r.r.r.r.r.r.w.~ $   ",
"                  .       o & @ # @ @ @ o @ * o o * @ o o @ & o o @ * o & @ o o D V.G.F.m.9.w.w.r.r.r.r.r.r.r.r.w.~ %   ",
"                        o u G H G H H H H H H H H H H H H H H H H H H H H H H T g.D.G.B.J M 4.r.r.r.r.r.r.r.r.r.w.~ $   ",
"J.J.J.J.J.J.J.J.J.J.J.  = f.Z.D.S.S.S.S.S.S.S.D.S.S.S.S.D.S.D.S.S.S.S.D.S.S.S.S.F.G.G.B.H M 4.r.r.r.r.r.r.r.r.r.w.~ $   ",
"J.J.J.J.J.J.J.J.J.J.J.  = h.D.G.G.G.G.G.G.G.G.G.G.G.G.G.G.G.G.G.G.G.G.G.G.G.G.G.G.G.G.F.m.9.w.r.r.r.r.r.r.r.r.r.w.~ $   ",
"J.J.J.J.J.J.J.J.J.J.J.  - h.F.G.G.G.G.G.G.G.G.G.G.G.G.G.G.G.G.G.G.G.G.G.G.G.G.G.G.G.G.G.A.n.e.e.r.r.r.r.r.r.r.r.w.~ @   ",
"J.J.J.J.J.J.J.J.J.J.J.  = h.D.G.G.G.G.G.G.G.G.G.G.G.G.G.G.G.G.G.G.G.G.G.G.G.G.G.G.G.G.F.M.q.w.e.r.r.r.r.r.r.r.r.w.~ $   ",
"J.J.J.J.J.J.J.J.J.J.J.  - h.F.G.G.G.F.S.D.H.G.G.G.G.G.G.G.G.G.G.G.G.G.G.G.G.G.G.G.G.G.C.3.| 6.r.r.r.r.r.r.r.r.r.w.~ $   ",
"J.J.J.J.J.J.J.J.J.J.J.  = h.D.G.G.H.V.E d.B.F.H.G.G.G.G.G.G.G.G.G.G.G.G.G.G.G.G.G.G.G.c.u 7 1.r.r.r.r.r.r.r.r.r.w.~ $   ",
"J.J.J.J.J.J.J.J.J.J.J.  = h.F.G.G.F.g.e = S f.C.H.G.G.G.G.G.G.G.G.G.G.G.G.G.G.G.G.G.G.x.r 4 <.r.r.r.r.r.r.r.r.r.w.~ %   ",
"J.J.J.J.J.J.J.J.J.J.J.  + E b.B.B.v.T =   o 9 G h.S.G.G.G.G.G.G.G.G.G.G.G.G.G.G.G.G.G.x.r 4 <.r.r.r.r.r.r.r.r.r.w.~ %   ",
"J.J.J.                    e i S S i 9   - 8 ; & w R c.S.G.G.G.G.G.G.G.G.G.G.G.G.G.G.G.x.t 4 <.r.r.r.r.r.r.r.r.r.w.~ %   ",
"J.J.J.    & - - - - - - ; * * * * * - ; A U I t & = i d.B.D.G.G.G.G.G.G.G.G.G.G.G.G.G.x.r 4 <.y.r.r.r.r.r.r.r.r.w.~ %   ",
"J.J.J.  & V K K K K K K K K K K K K K L i.k.k.i.F 8 O ; G h.C.F.G.G.G.G.G.G.G.G.G.G.G.x.w 4 <.e.e.r.r.r.r.r.r.r.w.~ $   ",
"J.J.J.  - U k.z.l.l.l.l.l.l.l.l.l.l.l.l.z.z.z.l.j.u.Z =   : W Z.G.G.G.G.G.G.G.G.G.G.G.x.r 4 <.r.r.r.r.r.r.r.r.r.w.~ $   ",
"J.J.J.  ; u.z.N.z.z.z.z.z.z.z.z.z.N.N.N.z.z.z.z.l.a.Y 0   O i B.G.G.G.G.G.G.G.G.G.G.G.x.r 4 <.r.e.r.r.r.r.r.r.r.w.~ $   ",
"J.J.J.  * L s.a.s.s.s.s.a.a.s.s.a.a.a.a.j.z.N.k.i.K 8 O = D x.D.G.G.G.G.G.G.G.G.G.G.G.x.r 4 <.y.r.r.r.r.r.r.r.r.w.~ $   ",
"J.J.J.  O 8 V C C C C C C C y C y V V C Y s.s.I y * = i E B.D.H.G.G.G.G.G.G.G.G.G.G.G.x.r 4 <.r.r.r.r.r.r.e.r.y.w.~ %   ",
"J.J.J.                    o = = = = O   t K A ; o w T c.S.G.G.G.G.G.G.G.G.G.G.G.G.G.G.x.r 4 <.r.r.r.r.r.r.r.r.r.w.~ %   ",
"J.J.J.J.                . S T R R T i o O * o : D h.Z.G.G.G.G.G.G.G.G.G.G.G.G.G.G.G.G.x.t 4 <.y.r.r.r.r.r.r.e.e.w.~ $   ",
"J.J.J.J.J.J.J.J.J.J.J.  o g.S.F.F.S.d.:   = i f.C.F.G.G.G.G.G.G.G.G.G.G.G.G.G.G.G.G.G.x.r 4 <.r.e.r.r.r.r.r.e.y.w.~ $   ",
"J.J.J.J.J.J.J.J.J.J.J.. * h.D.G.G.F.x.w w E B.D.G.G.G.G.G.G.G.G.G.G.G.G.G.G.G.G.G.G.G.x.r 4 <.r.r.r.r.r.r.r.e.r.w.~ $   ",
"J.J.J.J.J.J.J.J.J.J.J.  = h.F.G.G.G.S.b.v.S.F.G.G.G.G.G.G.G.G.G.G.G.G.G.G.G.G.G.G.G.G.x.r 4 <.r.r.r.r.r.r.r.r.r.w.~ $   ",
"J.J.J.J.J.J.J.J.J.J.J.  = h.F.G.G.G.G.F.H.G.G.G.G.G.G.G.G.G.G.G.G.G.G.G.G.G.G.G.G.G.G.x.r 4 <.e.r.r.r.r.r.r.r.r.w.~ $   ",
"J.J.J.J.J.J.J.J.J.J.J.  = h.D.G.G.G.G.G.G.G.G.G.G.G.G.G.G.G.G.G.G.G.G.G.G.G.G.G.G.G.G.x.r 4 <.e.r.r.e.r.r.r.r.r.w.~ $   ",
"J.J.J.J.J.J.J.J.J.J.J.  = h.F.G.G.G.G.G.G.G.G.G.G.G.G.G.G.G.G.G.G.G.G.G.G.G.G.G.G.G.G.c.r 4 <.y.r.r.r.r.r.r.r.r.w.~ $   ",
"J.J.J.J.J.J.J.J.J.J.J.  @ d.V.Z.Z.Z.Z.Z.Z.Z.Z.Z.Z.Z.Z.Z.Z.Z.Z.Z.Z.Z.Z.Z.Z.Z.Z.Z.Z.Z.Z.f.q 4  .t.w.r.r.r.r.r.r.r.w.~ $   ",
"J.J.J.J.J.J.J.J.J.J.J.  O q S S S S S S S S S S S S S S S S S S S S S S S S S S S S S w O $ m <.4.8.t.r.r.r.r.r.w.~ $   ",
"J.J.J.J.J.J.J.J.J.J.J.    O O O O O O O O X O O o O O O O X O O O X O O O O O . O O o X     + > 6 m B  .2.7.t.r.r. .$   ",
"J.J.J.J.J.J.J.J.J.J.J.J.J.J.J.J.J.J.J.J.J.J.J.J.J.J.J.J.J.J.J.J.J.J.J.J.J.J.J.J.J.J.J.J.J.        O $ 4 s M B  .2.B +   ",
"J.J.J.J.J.J.J.J.J.J.J.J.J.J.J.J.J.J.J.J.J.J.J.J.J.J.J.J.J.J.J.J.J.J.J.J.J.J.J.J.J.J.J.J.J.J.J.J.J.          $ 4 s 5 X   ",
"J.J.J.J.J.J.J.J.J.J.J.J.J.J.J.J.J.J.J.J.J.J.J.J.J.J.J.J.J.J.J.J.J.J.J.J.J.J.J.J.J.J.J.J.J.J.J.J.J.J.J.J.J.              ",
"J.J.J.J.J.J.J.J.J.J.J.J.J.J.J.J.J.J.J.J.J.J.J.J.J.J.J.J.J.J.J.J.J.J.J.J.J.J.J.J.J.J.J.J.J.J.J.J.J.J.J.J.J.J.J.J.        "
};
