/* XPM */
static char *result[] = {
/* columns rows colors chars-per-pixel */
"60 60 126 2 ",
"   c #010101",
".  c #0A0604",
"X  c #060905",
"o  c #0B0A05",
"O  c #130D07",
"+  c #160E08",
"@  c #0D140A",
"#  c #0F180C",
"$  c #171008",
"%  c #1B120A",
"&  c #121B0E",
"*  c #151C11",
"=  c #21160C",
"-  c #271A0E",
";  c #281B0F",
":  c #241D10",
">  c #2D1E11",
",  c #162111",
"<  c #192215",
"1  c #1C2C16",
"2  c #1E291A",
"3  c #2F2011",
"4  c #222B1B",
"5  c #332213",
"6  c #392615",
"7  c #3E2917",
"8  c #22341B",
"9  c #263A1D",
"0  c #293E1F",
"q  c #263521",
"w  c #2C3D25",
"e  c #402B17",
"r  c #432D19",
"t  c #47301A",
"y  c #4C331C",
"u  c #50361E",
"i  c #55391F",
"p  c #553920",
"a  c #5D3E23",
"s  c #2C4422",
"d  c #2F4824",
"f  c #2F4128",
"g  c #334F27",
"h  c #32432A",
"j  c #344A2B",
"k  c #36542A",
"l  c #3C5C2E",
"z  c #394E30",
"x  c #3C5334",
"c  c #3E6031",
"v  c #5F4023",
"b  c #425937",
"n  c #634225",
"m  c #684627",
"M  c #6B4827",
"N  c #6E4A29",
"B  c #754E2B",
"V  c #76502C",
"C  c #7B522E",
"Z  c #426532",
"A  c #466B36",
"S  c #496F37",
"D  c #4A653F",
"F  c #4B733A",
"G  c #4F7A3D",
"H  c #527D3E",
"J  c #526F45",
"K  c #58774A",
"L  c #5C7E4E",
"P  c #825730",
"I  c #855931",
"U  c #8D5E34",
"Y  c #8F6035",
"T  c #936236",
"R  c #976538",
"E  c #996739",
"W  c #9D693A",
"Q  c #A36D3C",
"!  c #A7703D",
"~  c #AA723F",
"^  c #AD7440",
"/  c #B17742",
"(  c #B57943",
")  c #BC7E45",
"_  c #568341",
"`  c #588643",
"'  c #5B8B45",
"]  c #5E9149",
"[  c #60954B",
"{  c #649B4E",
"}  c #618452",
"|  c #668A56",
" . c #6D945C",
".. c #70985F",
"X. c #6AA452",
"o. c #71AD56",
"O. c #73B057",
"+. c #75B359",
"@. c #78B75A",
"#. c #7BBC5D",
"$. c #719A60",
"%. c #77A265",
"&. c #78A466",
"*. c #7FAD6B",
"=. c #BF8046",
"-. c #82B16E",
";. c #85B571",
":. c #8CBF77",
">. c #C18147",
",. c #C58449",
"<. c #C9874A",
"1. c #CE8A4C",
"2. c #D38D4E",
"3. c #D7904F",
"4. c #D79050",
"5. c #DC9351",
"6. c #E19753",
"7. c #E49954",
"8. c #E89B56",
"9. c #ED9E58",
"0. c #8FC279",
"q. c #93C77C",
"w. c #95CA7E",
"e. c #98CF81",
"r. c #9AD183",
"t. c None",
/* pixels */
"t.t.t.t.t.t.t.t.t.t.t.t.t.t.t.t.t.t.t.t.t.t.t.t.t.t.t.t.t.t.t.t.t.t.t.t.t.t.t.t.t.t.t.t.t.t.t.t.t.t.t.t.t.t.t.t.t.t.t.t.",
"t.t.t.t.t.t.t.t.t.t.t.t.t.t.t.t.t.t.t.t.t.t.t.t.t.t.t.t.t.t.t.t.t.t.t.        t.t.t.t.        t.t.t.t.t.t.t.t.t.t.t.t.t.",
"t.t.t.t.t.t.t.t.t.t.t.t.t.t.t.t.t.t.t.t.t.t.t.t.t.t.t.t.t.t.t.t.t.t.  * w q @   t.t.  # 1 1 @   t.t.t.t.t.t.t.t.t.t.t.t.",
"t.t.t.t.t.t.t.t.t.t.t.t.t.t.t.t.t.t.t.t.t.t.t.t.t.t.t.t.t.t.t.t.t.  * J $.| w o     # g G S d X     t.t.t.t.t.t.t.t.t.t.",
"t.t.t.t.t.t.t.t.t.t.t.t.t.t.t.t.t.t.t.t.t.t.t.t.t.t.t.t.t.t.t.t.t.X q *.e.e.} q   X 9 ` X.X.F # X     t.t.t.t.t.t.t.t.t.",
"t.t.t.t.t.t.t.t.t.t.t.t.t.t.t.t.t.t.t.t.t.t.t.t.t.t.t.t.t.t.t.t.t.X f ;.e.e.;.x   X l ] X.] S # 1 1 @ t.t.t.t.t.t.t.t.t.",
"t.t.t.t.t.t.t.t.t.t.t.t.t.t.t.t.t.t.t.t.t.t.t.t.t.t.t.t.t.t.t.t.t.  2  .0.e.q.L * @ S { X.] k @ l k &   t.t.t.t.t.t.t.t.",
"t.t.t.t.t.t.t.t.t.t.t.t.t.t.t.t.t.t.t.t.t.t.t.t.t.t.t.t.t.t.t.t.t.t.@ z *.e.e...q # G { X.G 8 & H g # t.t.t.t.t.t.t.t.t.",
"t.t.t.t.t.t.t.t.t.t.t.t.t.t.t.t.t.t.t.t.t.t.t.t.t.t.t.t.t.t.t.t.t.t.  * L :.r.&.j # G X.{ k & 0 ' 0 X   t.  t.t.t.t.t.t.",
"t.t.t.t.t.t.t.t.t.t.t.t.t.t.t.t.t.t.t.t.t.t.t.t.t.t.t.t.t.t.t.t.t.t.t.X w %.r.*.x # F ] S 1 , S S &     # # o   t.t.t.t.",
"t.t.t.t.t.t.t.t.t.t.t.t.t.t.t.t.t.t.t.t.t.t.t.t.t.t.t.t.t.t.t.t.t.t.t.  $ K 0.;.x # S G 9 # d H 9 # & 1 s s , X   t.t.t.",
"t.t.t.t.t.t.t.t.t.t.t.t.t.t.t.t.t.t.t.t.t.t.t.t.t.t.t.t.t.t.t.t.t.t.t.t.  h &.*.z # k 9 # 9 Z 0 @ 8 c G Z g 1 o   t.t.t.",
"t.t.t.t.t.t.t.t.t.t.t.t.t.t.t.t.t.t.t.t.t.t.t.t.t.t.t.t.t.t.t.t.          * } $.h X # o 0 l 0 @ 9 A c 9 # @ & & X   t.t.",
"t.t.t.t.t.t.t.t.t.t.t.t.t.t.t.t.t.t.t.t.t.t.t.t.t.t.t.t.t.    . + - 3 > % . z J q   @ g c 9 # 9 k 9 & & 9 c H ` k &   t.",
"t.t.t.t.t.t.t.t.t.t.t.t.t.t.t.t.t.t.t.t.t.t.t.t.t.t.t.t.  + 7 n P R W E U 5 4 q , , l A 9 * 1 k 8 & 8 Z ] o.+.@.` 8   t.",
"t.t.t.t.t.t.t.t.t.t.t.t.t.t.t.t.t.t.t.t.t.t.t.t.t.t.  . > M Q <.5.8.8.8.5.C : X # q F s & 8 k 8 # s _ o.#.#.#.#.' 8   t.",
"t.t.t.t.t.t.t.t.t.t.t.t.t.t.t.t.t.t.t.t.t.t.t.t.t.  . 7 Y 2.7.8.8.7.7.8.7.^ r   o q 0 # q l s @ 0 ' O.@.+.O.o.{ l &   t.",
"t.t.t.t.t.t.t.t.t.t.t.t.t.t.t.t.t.t.t.t.t.t.t.t.t.  e Q 6.8.6.6.7.7.7.5.8.4.N + X @ X 8 c g @ # Z _ ` ' ] K A d &   t.t.",
"t.t.t.t.t.t.t.t.t.t.t.t.t.t.t.t.t.t.t.t.t.t.t.t.  5 E 5.8.6.6.8.7.5.7.7.7.7.^ 7     @ 9 q #   o # & & & , # o X   t.t.t.",
"t.t.t.t.t.t.t.t.t.t.t.t.t.t.t.t.t.t.t.t.t.t.t.  + C 1.8.6.7.6.6.7.7.7.7.7.7.<.P =     X * * q w x x x j 9 #       t.t.t.",
"t.t.t.t.t.t.t.t.t.t.t.t.t.t.t.t.t.t.t.t.t.t.t.. p ) 2.Q U <.6.8.7.7.7.5.6.7.7.,.I 7 $   X q J $.*.-.*.%. .L b 4 o   t.t.",
"t.t.t.t.t.t.t.t.t.t.t.t.t.t.t.t.t.t.t.t.t.t.  - E 5.,.n 7 ! 6.6.7.7.7.7.7.7.7.6.2.! N t 3 2 x ` &.0.r.r.e.q.-.} f @   t.",
"t.t.t.t.t.t.t.t.t.t.t.t.t.t.t.t.t.t.t.t.t.  + M 1.8.<.a = U 5.8.7.5.7.7.7.6.7.7.7.8.4./ V 5 X * h K &.0.e.e.e.e.| 8   t.",
"t.t.t.t.t.t.t.t.t.t.t.t.t.t.t.t.t.t.t.t.t.. e ( 5.8.2.B = N 2.8.7.7.6.6.7.7.6.7.5.7.7.7.4.Y %     @ w L ;.q.e.e.$.w   t.",
"t.t.t.t.t.t.t.t.t.t.t.t.t.t.t.t.t.t.t.t.  ; I 5.7.7.6.R > e >.6.7.6.7.7.7.6.6.7.7.7.7.6.8.W >   t.  X * z  .;.*.D *   t.",
"t.t.t.t.t.t.t.t.t.t.t.t.t.t.t.t.t.t.t.  O n <.8.8.6.8.( i % U 5.8.7.7.6.7.7.7.7.6.6.7.7.8.W >   t.t.t.  @ 2 w q * X t.t.",
"t.t.t.t.t.t.t.t.t.t.t.t.t.t.t.t.t.t.t.  e W 2.) 2.5.8.2.U = e ^ 5.8.6.6.7.7.6.6.7.7.7.7.6.T -   t.t.t.t.t.  . X   t.t.t.",
"t.t.t.t.t.t.t.t.t.t.t.t.t.t.t.t.t.t.  % P <.Q n Q 5.8.8.>.a % a ( 6.8.8.6.7.7.7.7.6.6.8.5.I %   t.t.t.t.t.t.t.t.t.t.t.t.",
"t.t.t.t.t.t.t.t.t.t.t.t.t.t.t.t.t.t.. a ) 5.P + B 1.8.8.5.^ e = v ^ 5.6.8.8.7.8.7.7.7.8.<.n   t.t.t.t.t.t.t.t.t.t.t.t.t.",
"t.t.t.t.t.t.t.t.t.t.t.t.t.t.t.t.t.. > W 6.5.E = i >.8.6.8.5.Q e % r U =.2.5.5.5.6.7.7.7.Q 7   t.t.t.t.t.t.t.t.t.t.t.t.t.",
"t.t.t.t.t.t.t.t.t.t.t.t.t.t.t.t.  + C 1.8.6.( 7 > Q 5.8.8.6.5.^ v = % r N Y ^ <.6.7.7.1.M +   t.t.t.t.t.t.t.t.t.t.t.t.t.",
"t.t.t.t.t.t.t.t.t.t.t.t.t.t.t.t.. t ) 6.7.8.1.B + n >.8.6.6.8.5.>.U p > = = 7 Y 6.8.5.Y >   t.t.t.t.t.t.t.t.t.t.t.t.t.t.",
"t.t.t.t.t.t.t.t.t.t.t.t.t.t.t.  ; C T ( 4.8.6./ e - B <.8.7.7.7.7.3.( R V v m Q 7.4.Q 7 . t.t.t.t.t.t.t.t.t.t.t.t.t.t.t.",
"t.t.t.t.t.t.t.t.t.t.t.t.t.t.  % v E r V ,.8.7.3.U > 5 B >.5.8.8.7.8.8.6.3.,.,.1.1.E e o   t.t.t.t.t.t.t.t.t.t.t.t.t.t.t.",
"t.t.t.t.t.t.t.t.t.t.t.t.t.t.  t ! ~ = y ( 8.7.6.2.P > ; v Q >.1.3.6.7.7.8.7.5.) C 5 .   t.t.t.t.t.t.t.t.t.t.t.t.t.t.t.t.",
"t.t.t.t.t.t.t.t.t.t.t.t.t.  : I 3.>.7 5 Q 6.7.7.6.2.U e % > i B Q 3.7.6.6.1.E i +   t.t.t.t.t.t.t.t.t.t.t.t.t.t.t.t.t.t.",
"t.t.t.t.t.t.t.t.t.t.t.t.  . n >.8.2.n = N 1.8.6.6.6.3./ B e = % v >.8.4.( m : .   t.t.t.t.t.t.t.t.t.t.t.t.t.t.t.t.t.t.t.",
"t.t.t.t.t.t.t.t.t.t.t.t.  e Q 6.8.5.Q 3 3 U 5.8.7.7.7.6.1.( E I Q 1.<.I e %   t.t.t.t.t.t.t.t.t.t.t.t.t.t.t.t.t.t.t.t.t.",
"t.t.t.t.t.t.t.t.t.t.t.  % P 2.8.6.7.2.B ; 6 U 1.7.8.8.7.8.7.6.4.<.Q a - .   t.t.t.t.t.t.t.t.t.t.t.t.t.t.t.t.t.t.t.t.t.t.",
"t.t.t.t.t.t.t.t.t.t.t.. i ) 8.7.7.7.7.) n ; 5 N Q / ,.3.7.7.6.) P r O   t.t.t.t.t.t.t.t.t.t.t.t.t.t.t.t.t.t.t.t.t.t.t.t.",
"t.t.t.t.t.t.t.t.t.t.  > E >.2.5.6.7.7.6.) B > = 6 y B ( 6.1.W a %     t.t.t.t.t.t.t.t.t.t.t.t.t.t.t.t.t.t.t.t.t.t.t.t.t.",
"t.t.t.t.t.t.t.t.t.  % N ) V C ) 8.6.6.8.7.2.Q n 6 = r T ) C > .   t.t.t.t.t.t.t.t.t.t.t.t.t.t.t.t.t.t.t.t.t.t.t.t.t.t.t.",
"t.t.t.t.t.t.t.t.t.. r ) >.7 7 Q 8.6.8.6.6.6.5.2.>.^ E C t + . t.t.t.t.t.t.t.t.t.t.t.t.t.t.t.t.t.t.t.t.t.t.t.t.t.t.t.t.t.",
"t.t.t.t.t.t.t.t.  > U 5.<.r > I 6.8.8.6.8.6.8.8.5.Q a ; o   t.t.t.t.t.t.t.t.t.t.t.t.t.t.t.t.t.t.t.t.t.t.t.t.t.t.t.t.t.t.",
"t.t.t.t.t.t.t.  + n <.7.5.B - 7 I Q ) 5.6.8.6.>.I r %   t.t.t.t.t.t.t.t.t.t.t.t.t.t.t.t.t.t.t.t.t.t.t.t.t.t.t.t.t.t.t.t.",
"t.t.t.t.t.t.t.  r Q 8.7.7.( a - > r C 1.8.2.Q n ;     t.t.t.t.t.t.t.t.t.t.t.t.t.t.t.t.t.t.t.t.t.t.t.t.t.t.t.t.t.t.t.t.t.",
"t.t.t.t.t.t.  % I 3.7.7.7.6.( B r e C >.) P 7 .   t.t.t.t.t.t.t.t.t.t.t.t.t.t.t.t.t.t.t.t.t.t.t.t.t.t.t.t.t.t.t.t.t.t.t.",
"t.t.t.t.t.t.. n =.8.7.7.7.7.7.3.<.=.) E i %     t.t.t.t.t.t.t.t.t.t.t.t.t.t.t.t.t.t.t.t.t.t.t.t.t.t.t.t.t.t.t.t.t.t.t.t.",
"t.t.t.t.t.. 5 Q 5.8.6.7.6.7.7.8.5.( M > .   t.t.t.t.t.t.t.t.t.t.t.t.t.t.t.t.t.t.t.t.t.t.t.t.t.t.t.t.t.t.t.t.t.t.t.t.t.t.",
"t.t.t.t.  % P 1.8.7.6.7.6.8.7.<.U t % . t.t.t.t.t.t.t.t.t.t.t.t.t.t.t.t.t.t.t.t.t.t.t.t.t.t.t.t.t.t.t.t.t.t.t.t.t.t.t.t.",
"t.t.t.t.o y ) 7.7.6.6.8.8.3.Q n ; .   t.t.t.t.t.t.t.t.t.t.t.t.t.t.t.t.t.t.t.t.t.t.t.t.t.t.t.t.t.t.t.t.t.t.t.t.t.t.t.t.t.",
"t.t.t.  > R 5.8.7.7.8.5.=.I r +   t.t.t.t.t.t.t.t.t.t.t.t.t.t.t.t.t.t.t.t.t.t.t.t.t.t.t.t.t.t.t.t.t.t.t.t.t.t.t.t.t.t.t.",
"t.t.  % M 2.6.8.8.6.1.Q v =     t.t.t.t.t.t.t.t.t.t.t.t.t.t.t.t.t.t.t.t.t.t.t.t.t.t.t.t.t.t.t.t.t.t.t.t.t.t.t.t.t.t.t.t.",
"t.t.. t / 7.7.6.5.) P 5 .   t.t.t.t.t.t.t.t.t.t.t.t.t.t.t.t.t.t.t.t.t.t.t.t.t.t.t.t.t.t.t.t.t.t.t.t.t.t.t.t.t.t.t.t.t.t.",
"t.  ; I 5.8.7.2.R y + . t.t.t.t.t.t.t.t.t.t.t.t.t.t.t.t.t.t.t.t.t.t.t.t.t.t.t.t.t.t.t.t.t.t.t.t.t.t.t.t.t.t.t.t.t.t.t.t.",
"t.  r ^ 9.5.^ m > o   t.t.t.t.t.t.t.t.t.t.t.t.t.t.t.t.t.t.t.t.t.t.t.t.t.t.t.t.t.t.t.t.t.t.t.t.t.t.t.t.t.t.t.t.t.t.t.t.t.",
"t.  > C ^ I t %   t.t.t.t.t.t.t.t.t.t.t.t.t.t.t.t.t.t.t.t.t.t.t.t.t.t.t.t.t.t.t.t.t.t.t.t.t.t.t.t.t.t.t.t.t.t.t.t.t.t.t.",
"t.t.o > r ; .   t.t.t.t.t.t.t.t.t.t.t.t.t.t.t.t.t.t.t.t.t.t.t.t.t.t.t.t.t.t.t.t.t.t.t.t.t.t.t.t.t.t.t.t.t.t.t.t.t.t.t.t.",
"t.t.t.      t.t.t.t.t.t.t.t.t.t.t.t.t.t.t.t.t.t.t.t.t.t.t.t.t.t.t.t.t.t.t.t.t.t.t.t.t.t.t.t.t.t.t.t.t.t.t.t.t.t.t.t.t.t.",
"t.t.t.t.t.t.t.t.t.t.t.t.t.t.t.t.t.t.t.t.t.t.t.t.t.t.t.t.t.t.t.t.t.t.t.t.t.t.t.t.t.t.t.t.t.t.t.t.t.t.t.t.t.t.t.t.t.t.t.t."
};
