/* XPM */
static char *result[] = {
/* columns rows colors chars-per-pixel */
"60 60 210 2 ",
"   c #533022",
".  c #533122",
"X  c #533222",
"o  c #533223",
"O  c #533323",
"+  c #543122",
"@  c #543222",
"#  c #543223",
"$  c #543323",
"%  c #533324",
"&  c #543324",
"*  c #533424",
"=  c #533725",
"-  c #543424",
";  c #553424",
":  c #543524",
">  c #543525",
",  c #553525",
"<  c #563525",
"1  c #543625",
"2  c #553625",
"3  c #563625",
"4  c #573625",
"5  c #543726",
"6  c #563626",
"7  c #573626",
"8  c #573726",
"9  c #583726",
"0  c #583727",
"q  c #593727",
"w  c #543826",
"e  c #543827",
"r  c #543927",
"t  c #543A27",
"y  c #593827",
"u  c #5A3827",
"i  c #5A3927",
"p  c #543A28",
"a  c #543B28",
"s  c #553C29",
"d  c #543D29",
"f  c #553D29",
"g  c #553E2A",
"h  c #593928",
"j  c #5A3928",
"k  c #5B3928",
"l  c #5A3A28",
"z  c #5B3A28",
"x  c #5B3A29",
"c  c #5C3929",
"v  c #5C3A28",
"b  c #5C3A29",
"n  c #5D3A29",
"m  c #5C3B29",
"M  c #5D3B29",
"N  c #5D3B2A",
"B  c #5E3B2A",
"V  c #5E3C2A",
"C  c #5F3D2B",
"Z  c #603D2A",
"A  c #603D2B",
"S  c #603E2B",
"D  c #613E2B",
"F  c #613E2C",
"G  c #623E2C",
"H  c #623F2C",
"J  c #633F2C",
"K  c #55422C",
"L  c #55422D",
"P  c #55432D",
"I  c #55472F",
"U  c #554830",
"Y  c #554831",
"T  c #554C32",
"R  c #554C33",
"E  c #564C32",
"W  c #564D33",
"Q  c #564E34",
"!  c #565035",
"~  c #565135",
"^  c #565136",
"/  c #565437",
"(  c #565538",
")  c #565738",
"_  c #565739",
"`  c #565839",
"'  c #57593A",
"]  c #575A3B",
"[  c #565B3B",
"{  c #575B3B",
"}  c #575B3C",
"|  c #565C3C",
" . c #575C3C",
".. c #565D3D",
"X. c #575D3D",
"o. c #575F3D",
"O. c #575E3E",
"+. c #575F3E",
"@. c #63402D",
"#. c #64402D",
"$. c #64412D",
"%. c #65422E",
"&. c #66422E",
"*. c #67422E",
"=. c #66422F",
"-. c #67422F",
";. c #67432F",
":. c #68432F",
">. c #68442F",
",. c #684330",
"<. c #684430",
"1. c #694430",
"2. c #6A4430",
"3. c #6A4530",
"4. c #6A4531",
"5. c #6B4531",
"6. c #6A4631",
"7. c #6B4631",
"8. c #6B4632",
"9. c #6C4631",
"0. c #6C4632",
"q. c #6D4632",
"w. c #6C4732",
"e. c #6D4732",
"r. c #57603F",
"t. c #57613F",
"y. c #57623F",
"u. c #576240",
"i. c #586D46",
"p. c #586F48",
"a. c #587049",
"s. c #58724A",
"d. c #58744B",
"f. c #58754B",
"g. c #58754C",
"h. c #58774C",
"j. c #59774D",
"k. c #59784D",
"l. c #597C50",
"z. c #598153",
"x. c #598454",
"c. c #5A8857",
"v. c #5A8957",
"b. c #5A8B59",
"n. c #5A8D5A",
"m. c #5B8D5A",
"M. c #5A8E5A",
"N. c #5A935D",
"B. c #5B9760",
"V. c #5B9A61",
"C. c #5B9A62",
"Z. c #5B9B62",
"A. c #5B9B63",
"S. c #5B9C63",
"D. c #5C9C63",
"F. c #5B9E64",
"G. c #5C9D64",
"H. c #5C9E64",
"J. c #5C9F65",
"K. c #5CA065",
"L. c #5CA066",
"P. c #5CA166",
"I. c #5CA266",
"U. c #5CA267",
"Y. c #5CA367",
"T. c #5CA467",
"R. c #5CA468",
"E. c #5CA568",
"W. c #5CA669",
"Q. c #5CA76A",
"!. c #5CA86A",
"~. c #5CAA6B",
"^. c #5CAD6D",
"/. c #5DAE6E",
"(. c #5DB270",
"). c #5DB371",
"_. c #5EB472",
"`. c #5DB672",
"'. c #5EB673",
"]. c #5EB773",
"[. c #5DB874",
"{. c #5DB975",
"}. c #5EB874",
"|. c #5EBC76",
" X c #5EBC77",
".X c #5EBD77",
"XX c #5EBE77",
"oX c #5EBF78",
"OX c #5EC179",
"+X c #5EC17A",
"@X c #5EC27A",
"#X c #5FC37A",
"$X c #5EC37B",
"%X c #5FC37B",
"&X c #5EC47B",
"*X c #5FC47B",
"=X c #5FC47C",
"-X c #5EC57C",
";X c #5FC57C",
":X c #5EC67C",
">X c #5FC67C",
",X c #5FC77C",
"<X c #5FC67D",
"1X c #5FC77D",
"2X c #5FC87D",
"3X c #5FC87E",
"4X c #5FC97E",
"5X c #5FC97F",
"6X c #5FCA7F",
"7X c None",
/* pixels */
"7X7X7X7X7X7X7X7X7X7X7X7X7X7X7X7X7X7X7X7X7X7X7X7X7X7X7X7X7X7X7X7X7X7X7X7X7X7X7X7X7X7X7X7X7X7X7X7X7X7X7X7X7X7X7X7X7X7X7X7X",
"7X7X;X>X<X>X>X>X>X>X>X>X>X>X>X>X>X>X>X>X>X>X>X>X>X>X>X>X>X>X>X>X>X>X>X>X>X>X>X>X>X<X>X<X>X>X<X>X<X>X>X>X>X<X>X>X>X;X7X7X",
"7X-X>X<X>X<X>X>X>X>X>X>X>X>X>X>X>X>X>X>X>X>X>X>X>X>X>X>X>X>X>X>X>X>X>X<X>X>X>X>X<X>X<X>X<X<X>X<X>X<X>X>X<X>X<X>X>X>X;X7X",
"7X:X<X<X>X<X>X<X>X>X>X>X>X>X>X>X>X>X>X>X>X>X>X>X>X>X>X>X>X>X>X>X>X>X>X<X>X<X<X<X<X>X<X>X<X<X>X<X>X<X>X>X<X>X<X>X<X>X>X7X",
"7X<X>X>X<X>X<X>X>X>X>X>X>X>X>X>X>X>X>X>X>X>X>X>X>X>X>X>X>X>X>X>X>X>X>X>X<X>X<X<X>X<X>X<X>X>X<X>X<X>X<X<X>X<X>X<X>X>X>X7X",
"7X>X<X<X>X<X>X>X>X>X>X>X>X>X>X>X>X>X>X>X>X>X>X>X>X>X>X>X>X>X>X>X>X>X>X<X>X<X>X>X<X>X<X>X<X<X>X<X>X<X>X>X<X>X<X>X>X>X>X7X",
"7X>X>X>X<X>X>X>X>X>X>X>X>X>X>X>X>X>X>X>X>X>X>X>X>X>X>X>X>X>X>X>X>X>X<X>X<X>X<X<X>X<X>X<X>X>X<X>X<X>X<X<X>X<X>X>X>X>X>X7X",
"7X;X>X<X>X>X>X>X>X>X>X<X3X4X4X3X1X>X>X>X>X>X>X>X>X>X>X,X4X4X4X2X1X<X>X<X>X<X>X>X<X>X<X1X4X6X5X3X<X<X>X>X<X>X>X>X>X>X;X7X",
"7X=X>X>X>X>X>X>X>X>X1X$X(.R.E.).%X1X>X>X>X>X>X>X>X>X2X#X).R.R._.%X2X>X>X<X>X<X<X>X<X1X$X).R.E.).&X1X>X>X>X>X>X>X>X>X=X7X",
"7X&X>X>X>X>X>X>X>X1X XZ.d.t.y.j.D.oX>X>X>X>X>X>X>X1X|.S.f.t.t.j.H..X1X>X<X>X<X<X<X<XXXC.g.t.u.h.F.XX1X>X>X>X>X>X>X>X*X7X",
"7X&X>X<X>X>X>X>X2X+XH.{ r .   t o.K.@X1X>X>X>X>X>X*XC.+.5 . + w u.G.=X<X>X<X>X>X1X@XG. .r   . t o.P.@X1X>X>X>X>X>X<X*X7X",
"7X*X>X>X>X>X>X>X4X(.f.5 & - - @ d p.{.<X>X>X>X>X<X'.a.p o - - # a s.}.1X<X>X<X<X>X[.i.d X - - & w k.).4X>X>X>X>X>X>X*X7X",
"7X*X<X<X>X>X>X>X4XE.+.O & - - $ 5 _ /.;X1X>X>X>X1XQ.O.# - - - - # +.!.2X>X<X>X1X;X^.) = $ - - & O r.E.4X<X>X>X>X>X>X*X7X",
"7X%X>X>X>X>X>X>X4XK._ O - - - $ 1 ~ ~.*X1X>X>X>X1XI.' + - - - - + ] U.1X<X>X<X1X*X~.~ 1 $ - - - $ ` K.4X>X>X>X>X>X>X%X7X",
"7X}.#X1X>X>X>X1X1XB.W $ - - - & > R T.%X1X>X>X<X3XV./ . - - - - + ( A.2X<X>X>X1X%XY.T : & - - - $ W B.1X1X>X>X>X1X#X}.7X",
"7XN.`.4X2X1X2X4X].l.g & - - - - & L b..X6X1X2X3XOXz.I . - - - - + U x.@X2X1X1X6X Xc.K & - - - - % g l.].4X2X1X2X4X`.N.7X",
"7X| M.].@X*X@X}.m.( $ - - - - - & e r.J..X%X%X|.F.} e $ - - - - o r O.L. X%X%X XS.X.w $ - - - - - $ ( m.}.@X*X@X].M...7X",
"7X1 ^ l.H.W.F.l.! 1 & - - - - - - - p r.b.T.Y.b.[ a & - - - - - - & s X.n.R.T.v.X.r - - - - - - - & 1 ! l.F.W.H.l.^ 1 7X",
"7X- 1 g U Q Y f 1 - - - - - - - - - - e P T E K w - - - - - - - - - - w K W T K w - - - - - - - - - - 1 f Y Q U g 1 - 7X",
"7X- & & : > - $ & - - - - - - - - - - & & > : - $ - - - - - - - - - - $ - : : & $ - - - - - - - - - - & $ - > : & & - 7X",
"7X- - - - $ & - - - - - - - - - - - - - - & $ - - - - - - - - - - - - - - $ & - - - - - - - - - - - - - - & $ - - - - 7X",
"7X- - - - - - - - - - - - - - - - - - - - - - - - - - - - - - - - - - - - - - - - - - - - - - - - * - - - - - - - - - 7X",
"7X- - - - - - - - - - - - - - - - - - - - - - - - - - - - - - - - - - - - - - - - - - - - - - - * - - - - - - - - - - 7X",
"7X- - - - - > 2 8 0 q 9 8 3 , - * - - - - - - - - > , 3 8 q 0 9 4 , > * - - - - - - - - - , 3 8 9 q 0 8 2 > - - - - - 7X",
"7X* * - , 0 V J &.;.;.-.%.@.V y 2 * * * * * - ; 7 b S $.&.;.;.*.$.S c 7 ; - * * * * - 3 y V @.%.-.;.;.&.J V 0 , - * * 7X",
"7Xj z V H =.2.7.9.w.0.0.9.7.1.=.H V x j j z M A #.<.4.9.9.0.0.9.9.4.,.#.A M z j j x V H =.1.7.9.0.0.w.9.7.2.=.H V z j 7X",
"7X*.;.1.5.w.e.e.e.e.e.e.e.e.e.0.5.1.;.=.&.;.:.3.9.e.e.e.e.e.e.e.e.e.w.9.3.:.;.&.=.;.1.5.q.e.e.e.e.e.e.e.e.e.w.5.1.;.*.7X",
"7Xe.e.e.e.e.e.w.w.w.w.e.w.e.w.e.e.e.e.e.e.e.e.e.e.e.w.e.e.w.e.w.w.e.w.e.e.e.e.e.e.e.e.e.e.w.e.e.e.w.w.w.w.e.e.e.e.e.e.7X",
"7Xw.e.e.w.e.w.e.w.w.e.w.e.w.e.e.w.e.w.e.w.w.e.w.e.w.e.e.e.e.w.e.e.w.e.w.e.w.e.e.w.e.w.e.w.e.e.e.w.e.w.w.e.w.e.w.e.e.w.7X",
"7Xe.w.w.e.w.e.w.e.e.w.e.w.e.w.w.e.w.e.w.e.e.w.e.w.e.e.5.1.<.6.w.e.e.w.e.w.e.w.w.e.w.e.w.e.e.e.w.e.w.e.e.w.e.w.e.w.w.e.7X",
"7Xw.e.e.w.e.w.e.w.w.e.w.e.w.e.e.w.e.w.e.w.w.e.w.e.0.:.A h i Z ,.q.e.e.w.e.w.e.e.w.e.w.e.e.e.w.e.w.e.w.w.e.w.e.w.e.e.w.7X",
"7Xe.w.w.e.w.e.w.e.e.e.e.e.e.w.w.e.w.e.w.e.e.w.e.e.4.A 7 : : 3 D 3.e.w.e.w.e.w.w.e.w.e.e.e.e.e.e.e.e.e.e.w.e.w.e.w.w.e.7X",
"7Xw.e.e.w.e.w.e.e.e.4.;.;.4.w.e.w.e.w.e.w.w.e.w.e.:.k * * * * z ;.e.e.w.e.w.e.e.w.e.e.e.e.5.:.&.:.5.e.e.e.w.e.w.e.e.w.7X",
"7Xw.e.e.w.e.w.e.e.:.D b b D :.w.w.e.w.e.w.w.e.w.e.:.k * * * * z ;.e.e.w.e.w.e.w.e.e.e.0.;.F b l m D :.0.e.w.e.w.e.e.w.7X",
"7Xe.w.w.e.w.e.e.4.D 3 * * 3 D 4.e.w.e.w.e.e.w.e.e.4.A 7 : : 3 D 3.e.w.e.w.e.w.e.e.e.e.:.V 3 * * - , B :.e.e.w.e.w.w.e.7X",
"7Xw.e.e.w.e.w.e.;.b * - - * b ;.e.e.w.e.w.w.e.w.e.0.:.A j i Z ,.q.e.e.w.e.w.e.e.e.e.8.A 6 * - - - * 3 A 5.e.e.w.e.e.w.7X",
"7Xe.w.w.e.w.e.e.;.b * - - * b ;.e.w.e.w.e.e.w.e.w.e.e.5.1.<.6.w.e.e.w.e.w.e.e.e.w.e.1.z : * - - - - - z :.e.w.e.w.w.e.7X",
"7Xw.e.e.w.e.w.e.4.D 3 * * 3 D 4.e.e.w.e.w.w.e.w.e.w.e.e.e.e.w.e.e.w.e.w.e.e.e.w.e.w.;.y - - - - - - * j ;.e.e.w.e.e.w.7X",
"7Xe.w.w.e.w.e.w.w.:.D b b D :.e.e.w.e.w.e.e.w.e.w.e.w.e.e.w.e.w.e.e.w.e.e.e.w.e.e.e.1.k - - - - - * - v >.e.w.e.w.w.e.7X",
"7Xe.w.w.e.w.e.w.e.w.4.;.;.4.e.e.e.w.e.w.e.e.w.e.w.e.w.w.e.w.e.w.e.w.e.e.e.w.e.e.w.w.7.A 3 * * * * * 6 S 5.w.w.e.w.w.e.7X",
"7Xw.e.e.w.e.w.e.w.w.e.e.e.e.e.e.w.e.w.e.e.e.e.w.e.w.e.e.w.e.w.e.w.e.e.e.w.e.w.w.e.w.e.;.M 3 : - > 3 N -.e.w.e.w.e.e.w.7X",
"7Xe.w.w.e.w.e.w.e.e.w.e.w.e.w.w.e.w.e.e.w.e.e.e.w.e.w.w.e.w.e.w.e.e.e.w.e.w.e.e.w.e.e.0.;.S k y k A ;.w.e.e.w.e.w.w.e.7X",
"7Xw.e.e.w.e.w.e.w.w.e.w.e.w.e.e.w.e.7.1.:.1.5.e.e.w.e.e.w.e.w.e.e.e.w.e.w.e.w.w.e.w.e.w.w.7.1.>.1.5.w.w.e.w.e.w.e.e.w.7X",
"7Xe.w.w.e.w.e.w.e.e.w.e.w.e.w.e.0.:.C k y k A :.w.e.w.w.e.w.e.e.e.w.e.e.e.e.e.e.e.e.w.e.e.e.e.e.e.w.e.e.w.e.w.e.w.w.e.7X",
"7Xw.e.e.w.e.w.e.w.w.e.w.e.w.e.w.:.M 6 - - - 6 M :.0.e.w.w.e.e.e.w.e.e.4.;.&.:.4.e.e.e.w.e.e.e.e.e.e.w.w.e.w.e.w.e.e.w.7X",
"7Xw.e.e.w.e.w.e.w.w.e.w.e.w.e.5.G , * - - - * 3 D 4.e.e.e.e.e.w.e.9.:.F m z b D ;.0.e.e.e.e.w.e.w.e.w.w.e.w.e.w.e.e.w.7X",
"7Xe.w.w.e.w.e.w.e.e.w.e.w.e.e.:.m * - - - - - : z <.e.e.e.e.w.e.e.:.B < - * * < N ,.w.e.w.w.e.w.e.w.e.e.w.e.w.e.w.w.e.7X",
"7Xw.e.e.w.e.w.e.w.w.e.w.e.w.e.-.j * - - - - - - u ;.e.e.e.w.e.e.4.F < * - - - * 6 A 7.w.e.e.w.e.w.e.w.w.e.w.e.w.e.e.w.7X",
"7Xe.w.w.e.w.e.w.e.e.w.e.w.e.e.:.m * - - - - - > x ,.e.e.w.e.w.e.;.m - - - - - * > j 1.e.w.w.e.w.e.w.e.e.w.e.w.e.w.w.e.7X",
"7Xw.e.e.w.e.w.e.w.w.e.w.e.w.e.4.F , * - - - * 3 D 4.e.w.e.w.e.e.&.z * - - - - * - y <.e.e.e.w.e.w.e.w.w.e.w.e.w.e.e.w.7X",
"7Xe.w.w.e.w.e.w.e.e.w.e.w.e.e.w.:.M 3 - % - 6 B :.0.e.w.w.e.w.e.:.b * - - - - * > k 1.e.e.w.e.w.e.w.e.e.w.e.w.e.w.w.e.7X",
"7Xe.w.w.e.w.e.w.e.e.w.e.w.e.w.e.0.;.A v j b A -.0.e.e.w.w.e.w.e.4.D < * * * * * 6 A 5.e.w.w.e.w.e.w.e.e.w.e.w.e.w.w.e.7X",
"7Xw.e.e.w.e.w.e.w.w.e.w.e.w.e.e.w.e.7.,.;.1.7.w.e.e.w.w.e.w.e.e.e.;.N 6 > - > 6 n :.w.w.e.e.w.e.w.e.w.w.e.w.e.w.e.e.w.7X",
"7Xe.w.w.e.w.e.w.e.e.w.e.w.e.w.w.e.w.e.e.e.e.e.e.e.w.e.e.w.e.w.e.e.0.,.A j y k A :.e.w.e.w.w.e.w.e.w.e.e.w.e.w.e.w.w.e.7X",
"7Xw.e.e.w.e.w.e.w.w.e.w.e.w.e.e.w.e.w.e.e.e.w.e.w.e.w.w.e.w.e.w.e.e.w.7.1.<.1.5.w.w.e.w.e.e.w.e.w.e.w.w.e.w.e.w.e.e.w.7X",
"7Xe.w.w.e.w.e.w.e.e.w.e.w.e.w.w.e.w.e.e.e.w.e.w.e.w.e.e.w.e.w.e.w.e.e.w.e.e.e.e.w.e.w.e.w.w.e.w.e.w.e.e.w.e.w.e.w.w.e.7X",
"7Xw.e.e.w.e.w.e.w.w.e.w.e.w.e.e.w.e.e.e.w.e.w.e.w.e.w.w.e.w.e.w.e.e.w.e.w.e.e.w.e.w.e.w.e.e.w.e.w.e.w.w.e.w.e.w.e.e.w.7X",
"7Xw.w.e.w.e.w.e.w.w.e.w.e.w.e.e.w.e.e.w.e.e.w.e.w.e.w.w.e.w.e.w.e.e.w.e.w.e.w.w.e.w.e.w.e.e.w.e.w.e.w.w.e.w.e.w.e.w.w.7X",
"7X7Xw.w.e.w.e.w.e.e.w.e.w.e.w.w.e.w.w.e.w.w.e.w.e.w.e.e.w.e.w.e.w.w.e.w.e.w.e.e.w.e.w.e.w.w.e.w.e.w.e.e.w.e.w.e.w.w.7X7X",
"7X7X7X7X7X7X7X7X7X7X7X7X7X7X7X7X7X7X7X7X7X7X7X7X7X7X7X7X7X7X7X7X7X7X7X7X7X7X7X7X7X7X7X7X7X7X7X7X7X7X7X7X7X7X7X7X7X7X7X7X"
};
