/* XPM */
static char *result[] = {
/* columns rows colors chars-per-pixel */
"60 60 73 1 ",
"  c #060606",
". c gray5",
"X c #141314",
"o c #1C1619",
"O c #1B1B1B",
"+ c #201F20",
"@ c #232323",
"# c gray17",
"$ c #31242A",
"% c #3E2C34",
"& c #333333",
"* c #3C3C3C",
"= c #443039",
"- c #49333E",
"; c #4D3640",
": c #4B3A41",
"> c #513844",
", c #444444",
"< c #4D4247",
"1 c #4E464A",
"2 c #4C4C4C",
"3 c #55424B",
"4 c #5A4F54",
"5 c #545454",
"6 c #5B5055",
"7 c #5B5B5B",
"8 c #664756",
"9 c #664A56",
"0 c #724C5D",
"q c #64545B",
"w c #745060",
"e c #7B5265",
"r c #646464",
"t c #686366",
"y c #6C6C6C",
"u c #737373",
"i c #7C7C7C",
"p c #85596D",
"a c #8E5E74",
"s c #926177",
"d c #98657C",
"f c #9E6981",
"g c #A16983",
"h c #A76F88",
"j c #AA718B",
"k c #B27590",
"l c #B87995",
"z c #848484",
"x c #8C8C8C",
"c c #949494",
"v c #979897",
"b c #9B9B9B",
"n c #A4A4A4",
"m c #A7A8A7",
"M c #ADADAD",
"N c #B4B4B4",
"B c #BBBBBB",
"V c #D58CAD",
"C c #D98EAF",
"Z c #E193B6",
"A c #E999BD",
"S c #EF9CC2",
"D c #F19DC3",
"F c #C4C4C4",
"G c #CCCCCC",
"H c #D3D3D3",
"J c #DCDCDC",
"K c #E0DFDF",
"L c #E4E4E4",
"P c #EBEBEB",
"I c #F4F4F4",
"U c #FAFAFA",
"Y c None",
/* pixels */
"YYYYYYYYYYYYYYYYYYYYYYXOOXYYYYYYYYYYYYYYYYYYYYYYYYYYYYYYYYYY",
"YYYYYYYYYYYYYYYYYYYYY#5zz7#YYYYYYYYYYYYYYYYYYYYYYYYYYYYYYYYY",
"YYYYYYYYYYYYYYYYYYYY#tNHHNt#YYYYYYYYYYYYYYYYYYYYYYYYYYYYYYYY",
"YYYYYYYYYYYYYYYYYYYOrNPPPPb, Y#272#YYYYYYYYYYYYYYYYYYYYYYYYY",
"YYYYYYYYYYYYYYYYYYY*bLLLLPM2X*imFMu#YYYYYYYYYYYYYYYYYYYYYYYY",
"YYYYYYYYYYYYYYYYYYOuFPLLLHx,2mLUUUHrOYYYYYYYYYYYYYYYYYYYYYYY",
"YYYYYYYYYYYYYYYYYY&nJPLLHc5rBIUUUUHx@YYYYYYYYYYYYYYYYYYYYYYY",
"YYYYYYYYYYYYYYYYYOrFPLLHv2yBIUUIFxt,OYYYYYYYYYYYYYYYYYYYYYYY",
"YYYYYYYYYYYYYYYYY#cHPLHn5tBIUUJvrq8$XYYYYYYYYYYYYYYYYYYYYYYY",
"YYYYYYYYYYYYYYYYY*NLLJNr5MIUUJx6wga$YYYYYYYYYYYYYYYYYYYYYYYY",
"YYYYYYYYYYYYYYYY+7GLLBi2nPUULv<pCVeoYYYYYYYYYYYYYYYYYYYYYYYY",
"YYYYYYYYYYYYYYYY#iJLHx2iLUUPM1pZAs$YYYYYYYYYYYYYYYYYYYYYYYYY",
"YYYYYYYYYYYYYYYY&bJJn7rHUUUFt8CDg=.YYYYYYYYYYYYYYYYYYYYYYYYY",
"YYYYYYYYYYYYYYYY,BJGy5nIUUKz3lSh;XYYYYYYYYYYYYYYYYYYYYYYYYYY",
"YYYYYYYYYYYYYYYO5GHv5iLUUUmqpZj;oYYYYYYYYYYYYYYYYYYYYYYYYYYY",
"YYYYYYYYYYYYYYY@rGFtrNUUUJu9kj>oYYYYYYYYYYYYYYYYYYYYYYYYYYYY",
"YYYYYYYYYYYYYYY@7mc,xLUUIm6wd-XYYYYYYYYYYYYYYYYYYYYYYYYYYYYY",
"YYYYYYYYYYYYYOO@*725NUUULt;>%XYYYYYYYYYYYYYYYYYYYYYYYYYYYYYY",
"YYYYYYYYYYO&5uzzzurcJUUIN*OoYYYYYYYYYYYYYYYYYYYYYYYYYYYYYYYY",
"YYYYYYYYX,iMGJLPLJHKIUIFr@.YYYYYYYYYYYYYYYYYYYYYYYYYYYYYYYYY",
"YYYYYYY@rnJIUUUUUUUUUUHu#XYYYYYYYYYYYYYYYYYYYYYYYYYYYYYYYYYY",
"YYYYYY@yBPUUUUUUUUUUUUH7XYYYYYYYYYYYYYYYYYYYYYYYYYYYYYYYYYYY",
"YYYYYO7FUUILGLUUUUUUUUPb#YYYYYYYYYYYYYYYYYYYYYYYYYYYYYYYYYYY",
"YYYYO,BIUUJz5cKUUUUUUUUG,YYYYYYYYYYYYYYYYYYYYYYYYYYYYYYYYYYY",
"YYYY&xPUUUF2X7GUUUIUUUUJr@YYYYYYYYYYYYYYYYYYYYYYYYYYYYYYYYYY",
"YYYO5HIUUUJz2cLUUUUUUUUPtOYYYYYYYYYYYYYYYYYYYYYYYYYYYYYYYYYY",
"YYY&xIUUUUIHFLIUUUUUUUUPx*@+X.YYYYYYYYYYYYYYYYYYYYYYYYYYYYYY",
"YY.5BUUUUUUUUUUUIUUUUUUIFvzur7,*#OYYYYYYYYYYYYYYYYYYYYYYYYYY",
"YYOyJUUUUUUUUUUUUUUUUIUUUIILHFMcy5*#OYYYYYYYYYYYYYYYYYYYYYYY",
"YY&xIUUUUUUUUUUUUUUUUUUUUUUUUUUIPHMi2@OYYYYYYYYYYYYYYYYYYYYY",
"YY&xIUUUUIUUUIUIUUUIUUUIUUUUUUUUUUIPGc5#XYYYYYYYYYYYYYYYYYYY",
"YY#zPUUUUUUUUUUUUUUUUUUUUUUUUUUUUUUUILBx2OYYYYYYYYYYYYYYYYYY",
"YYX7FUUUUUUUIUUUUUUUUUUUIUUUUUUUUUUUUUIHnt#YYYYYYYYYYYYYYYYY",
"YYY&iJUUUUUUUUUUIJPUUUUUUUUUUUUIUUIUUUIIKNy#YYYYYYYYYYYYYYYY",
"YYYY&zGPUUUUUIIJNxGIUUUUUUUUUUUUUUUUUUUIPLFy#YYYYYYYYYYYYYYY",
"YYYYY@7vFJLPLHMi5rGIUUUUUUUIUIUUUUUUIUUUPLLBr+YYYYYYYYYYYYYY",
"YYYYYYO#*7ty7,*7cHIUIUUUUUUUUIUUUIUUUUUIIPLJn2.YYYYYYYYYYYYY",
"YYYYYYYYY@@@@X5MPUUUUUUUIUUUUUUUUUUUUUUUUPLLGz#YYYYYYYYYYYYY",
"YYYYYYYYYYYYYXiLUUUUUUUUUUUUUUIJGGJIUUUUUIPLLM2XYYYYYYYYYYYY",
"YYYYYYYYYYYYY@cPUIUUUUIUUUUUIGvzuinIIUUUUUPLLFiOYYYYYYYYYYYY",
"YYYYYYYYYYYYY#bUUUUUUUUUUUUPFu57yinPIUUUUIILLJb#YYYYYYYYYYYY",
"YYYYYYYYYYYYY#bIUUUUUUUUUUUFt2nJPIIIUUUUUUILLLN,YYYYYYYYYYYY",
"YYYYYYYYYYYYY@cIUUUUUIUUUULx5MPUUUUUUUUUUUUPLLFrOYYYYYYYYYYY",
"YYYYYYYYYYYYYOzLUUUUUUUUUUFuyPUUUUUUUUUIUUUPLLGuOYYYYY YYYYY",
"YYYYYYYYYYYYY.yGUUUUUUUUUUMtxUUUUUUUUUUUUUUPLLHz+YYY@,5*@YYY",
"YYYYYYYYYYYYYY5MUUUUUUUUUUnybUUUUUIUUUUUUUUILLHx@YX*tvMx,XYY",
"YYYYYYYYYYYYYY#zPUUUUUUUUUnrcUUUUUUUIUUUIUUPLLHc@X*iFPPJu@YY",
"YYYYYYYYYYYYYY.5BUIUUUUUUUByiPUUUUUUUUUUUUUILLJv@&zHLLLLz&YY",
"YYYYYYYYYYYYYYY#uPUUUUUIUULz5GIUUIUUUUUUUIUPLLHv&uFKLLLLz&YY",
"YYYYYYYYYYYYYYYY,MIUUUUUUUIM7uLUUUUUUUUUUUUPLLHc,bHKPLLJu@YY",
"YYYYYYYYYYYYYYYY@uLUUUUUUUULc5cJUUUUUUIUUUIPLPHx2mHJLLPF7XYY",
"YYYYYYYYYYYYYYYYX*GIUUUUILLJNr,zGPUUUUUUUUILKLGu5MHHJKJx*YYY",
"YYYYYYYYYYYYYYYYO*FIUUIJNvxxxt#&iGUUUUUUUIPLLLFrrNHHHGn2OYYY",
"YYYYYYYYYYYYYO&,5yHIUUHz22777752yBUUUIUUUIPKLJm*7bBNMz,OYYYY",
"YYYYYYYYYYYYo7nHJKIUUJx2vGJJJJLJLPUUUUUUUPKLLGz++*22*#XYYYYY",
"YYYYYYYYYYYY*mPUUUUUUBriKIUUUUUUUUUIUUUIPLKLLm2XYYOOYYYYYYYY",
"YYYYYYYYYYYOuJUUUUUUUn5NUUUUUUUUUUUUUUUIPLLJm7@YYYYYYYYYYYYY",
"YYYYYYYYYYY@zJIPPPPILx5BPPPIPPPPPPPIPPKHHFNc7@YYYYYYYYYYYYYY",
"YYYYYYYYYYYO7cbvbbbbc7*zvbvbbbbbbbvbvccxzu7&oYYYYYYYYYYYYYYY",
"YYYYYYYYYYYXO@@@@@@@@OXO@@@@@@@@@@@@@@OOOX.YYYYYYYYYYYYYYYYY"
};
