/* XPM */
static char *_cdc5a29f13e4b25cf7e90d5d9dbddbfu5rnmcddv4Mv3HBc[] = {
/* columns rows colors chars-per-pixel */
"60 60 176 2 ",
"   c #AB3737",
".  c #AE3932",
"X  c #AC3939",
"o  c #B93735",
"O  c #B73C37",
"+  c #BF3936",
"@  c #B43D3D",
"#  c #BA3D3B",
"$  c #B23533",
"%  c #C33D3B",
"&  c #CB3E3D",
"*  c #C23335",
"=  c #D43E3C",
"-  c #AE403F",
";  c #C84237",
":  c #C6423D",
">  c #CB413F",
",  c #C4483C",
"<  c #D0403F",
"1  c #D8443E",
"2  c #B23C41",
"3  c #C13F41",
"4  c #CB3E44",
"5  c #CE3E48",
"6  c #D53C41",
"7  c #B74141",
"8  c #BF4243",
"9  c #B54947",
"0  c #B34B4A",
"q  c #B9484A",
"w  c #B95253",
"e  c #BD767A",
"r  c #C44141",
"t  c #CA4342",
"y  c #CC4A45",
"u  c #C4464B",
"i  c #CC444A",
"p  c #C54949",
"a  c #CA4A49",
"s  c #C54C44",
"d  c #D64644",
"f  c #DB4441",
"g  c #D64844",
"h  c #DB4A44",
"j  c #D1454B",
"k  c #D1494A",
"l  c #CD4F50",
"z  c #D54D5B",
"x  c #CE5554",
"c  c #CF515C",
"v  c #D15354",
"b  c #DC5655",
"n  c #D25759",
"m  c #D7595E",
"M  c #DD5D5E",
"N  c #E64645",
"B  c #ED4545",
"V  c #E44944",
"C  c #ED4A46",
"Z  c #EC4648",
"A  c #E54C4B",
"S  c #ED4D4D",
"D  c #F44A46",
"F  c #F1474C",
"G  c #F14C4B",
"H  c #EB514D",
"J  c #F0524E",
"K  c #E54E51",
"L  c #ED4D51",
"P  c #EE4E58",
"I  c #F34753",
"U  c #F14C50",
"Y  c #E65051",
"T  c #EA5151",
"R  c #E5565C",
"E  c #E55D5C",
"W  c #EA5E5C",
"Q  c #EC5B56",
"!  c #F05050",
"~  c #EA615A",
"^  c #E65E62",
"/  c #ED5D61",
"(  c #F15A69",
")  c #F25B62",
"_  c #D36764",
"`  c #C26E76",
"'  c #C17376",
"]  c #C77975",
"[  c #CD7A76",
"{  c #C37279",
"}  c #CC777A",
"|  c #C2797D",
" . c #CC7B7D",
".. c #D67677",
"X. c #D57876",
"o. c #D47679",
"O. c #DD7679",
"+. c #D57B7C",
"@. c #DD787E",
"#. c #EB6161",
"$. c #E7716F",
"%. c #E1877F",
"&. c #CD7E84",
"*. c #D47F82",
"=. c #DA7983",
"-. c #BD9890",
";. c #CD8183",
":. c #D28382",
">. c #DC8782",
",. c #DD828B",
"<. c #C79796",
"1. c #C89695",
"2. c #CA9899",
"3. c #D29B95",
"4. c #D99A95",
"5. c #D99798",
"6. c #D69A99",
"7. c #DA9A9B",
"8. c #E48786",
"9. c #EB8181",
"0. c #E68986",
"q. c #E98985",
"w. c #E68788",
"e. c #EB8689",
"r. c #E68889",
"t. c #EF8F93",
"y. c #C7A099",
"u. c #CEA89B",
"i. c #E3A59D",
"p. c #E9A29F",
"a. c #D097A0",
"s. c #D79FA2",
"d. c #DA9FA5",
"f. c #E09FA5",
"g. c #EF9DA1",
"h. c #E494A1",
"j. c #DAA1A4",
"k. c #D9AFB1",
"l. c #DEB5B5",
"z. c #E5A3A4",
"x. c #EAA3A5",
"c. c #E5AAA6",
"v. c #E4A5A9",
"b. c #ECA5A9",
"n. c #E6ACAB",
"m. c #ECABA9",
"M. c #F1A2A4",
"N. c #E9B6BB",
"B. c #DFC0BB",
"V. c #D9CDBF",
"C. c #DAC7C1",
"Z. c #D6CBC3",
"A. c #DBCBC5",
"S. c #DFC6C9",
"D. c #DDCBCC",
"F. c #D9D0C1",
"G. c #DFD0CD",
"H. c #D3D3C9",
"J. c #DACFD5",
"K. c #DDDED9",
"L. c #DBD8D3",
"P. c #E2C6C5",
"I. c #EDC4C4",
"U. c #E2CBC5",
"Y. c #E4C6CB",
"T. c #E3CBCD",
"R. c #E8CACE",
"E. c #E0D2C9",
"W. c #E9D1CD",
"Q. c #E2CCD2",
"!. c #EACBD1",
"~. c #E2D1D2",
"^. c #EAD6D7",
"/. c #D3DDE6",
"(. c #D6E6E5",
"). c #D8E8E5",
/* pixels */
"S S S S H S S S S S S G S S S S S L S S S S S S L S S S S S S S S L H G S S E x.T.+.y 3 4 > t t t t t t t t > t , t t > ",
"S S S H S S S S S S L S S S S S S G S S S S G S S S S S G S S S S U S S S S E x.T.+.t t i t > t t t 4 t t t r t t r r t ",
"S S A S S S S S S S L S S S L S S L S S S S S S S G S L S S S S S G C J S S E g.T.+.t : t i t r t r t t t t t t t t t t ",
"S S H S G S S L G S S S S S G S S G S S L S G S S S S S S S L Z H G H G U S E x.D.+.t r t t t t t t t t > t 4 t t r t r ",
"S S S S S S S T S G S S S S S S S S S S G L S S S S S S S U S S S U S S S S W x.J.+.t r t y t t r > t t t t t t t t t t ",
"L S S S S S S S S S S S S S S S S S S S S S S S S S F S S S S S S U H S L S E x.T.+.t : i t t 4 t 4 t t t t t 3 t t 4 > ",
"S S S S H S S H S L G S L S S S S L S S S S S S S L S S S S S S S U S J I S E x.T.+.y t 4 t t t t t t t > 4 t t t t t t ",
"S U S S S S S S S S S S S S S S S G S S S S G L S S S S S S S S S S H G G N W x.D.*.t r t t t t t t t t t t t t t r 4 t ",
"T S L L L S L T S S L H S S S H S S S S S S S S L S T S L S T S S L A S L S Q x.G.+.y > t t y & t t t t t t t t > t t r ",
"S S S S L G S S S S S S S S S S S S S S S S S S S S S S S S S G H G S H L S E p.A.o.t & 4 t > 4 t t > 4 t t t t r t t t ",
"J H J H H H G S C S S S C H S S S S S H S S S S G G H G S J H G H G H J S G Q x.D.+.t & i > y 4 t t t t t t t t t t t t ",
"G G G G G G G G H H S H H S H H S G G H S S H S S H G H G H G H S G S G L S ~ x.T.*.y & t t t t t t t r t t r t t t t t ",
"S G S G S L S S G S S L L S L L S L S L S L H T S S S S S S S L S U S S L S W x.D.+.t t y t r t t t t t t t t t t t t d ",
"L S S S S L S S L L S S S L S S S H L H S H L S L S K S S L S S S U S L I S W g.D.*.y > t t > t > > t > > > > t t t t t ",
"S S S S G S S S H S S S H S S H S S S H S S S S S S H H S S S S H S S S L S ~ x.D.+.t > t > > & > > t t t t > > t t t t ",
"S S S S S S S S S S C H S S S C C S S S H C A S S A C H A H A A H S A S S S E p.J.+.t > i > y 4 : t , > : > , t t t & r ",
"V V V V V V V V N A V A V N V A V B A N V V Z A B V A V V N C V B h A V V B R i.D.&.3 o 2 5 i O 8 r 3 3 3 r r 2 : # % % ",
"j j j j j i j i j j j a j j j a y y a k y y d a j i i a j j j a j s j k t 1 m j.S.| @ X X @ @ X 2 X @ @ @ @ @ @ @ 7 X @ ",
"X.X.....X.X.o...o.o.+.o.o.o.o.o.o.o.} o...X.o. .o.o.X. .o.o.+.o.o.o.=.+.[ X.,.l.~.6.{ ' e ` { e { e ` { e { { { { { { { ",
"A.A.A.A.A.A.Z.D.A.A.A.Z.A.A.A.A.Z.U.A.J.P.U.A.D.P.D.A.A.D.U.A.D.E.A.Y.U.V.F.P.K.(.L.B.V.V.Z.A.A.C.Z.Z.Z.C.Z.Z.A.D.A.D.A.",
"d.d.d.d.j.d.j.d.j.j.j.j.j.j.j.u.d.z.l.^.I.m.z.b.b.x.c.c.x.x.x.x.m.z.x.b.c.b.x.x.j.b.M.b.z.b.b.x.x.b.x.x.b.x.x.x.x.b.b.b.",
"x x x x x x x x x x x x l x l x c m >.U.n.$.E ( Q ~ E ~ ~ ~ ~ ~ E W ) / ~ / W W / ) ) ~ ~ ~ W ^ W W W / W / #.W ~ ~ W #.",
"5 5 4 4 5 4 5 4 4 4 r r 4 4 4 4 3 d X.A.n.~ N U G S S Z Z G G S G G C G S N C J D G N S G G C G Z S S C S N D S C S G G ",
"r t t y t i r t t y y t t r > y 9 i ..A.j.( S P Z S H S S S J S S J A H ! T H C G H T T ! G S T H H H S S H S H H L H S ",
"4 > > > > > > > > & > < & & > < r u +.U.g.Q B S C S L S S S S S S H S S S C S S S S H S S S H S S S S S S C H S S S S N ",
"> r > > > > t : > > y t t > > > , u +.P.x.Q S H S G L L S S S S S H H S H H H S H H S S H H G S H S S J H H S H S S S S ",
"t t t t t t t t t > t t y t t t : u %.A.x.E L U S S L L S H H S H G S S J G L J G G J S G S G T G G L H G S G H S S S S ",
"r t r t r r > r t r : r r t t : & u +.F.x.E Z S S S L L S S S S L S L L S S S L S S L S S S S L S S L S L L S G L S L G ",
"> t > 4 t > t & 4 t 4 r t t d 4 t u o.A.b.W F F T L L L S H S S S L L H L S S S L S L S S L S S L L S L L L S L S S S L ",
"t t t y y t i t d i > & & > i i d u o.U.b.~ U S L L L ! H C S T L S S L S L L S S L L L L S L L S S L S L H L G S S S S ",
"d t t > y t > < t y t > t t t i ; u +.U.x.Q S S H S S S S S S L S S S H S S S S H S H S S H S S S H H S S S H S S S S S ",
"> > : > > > > > t r t t > t t 4 ; q %.U.x.E A H H S S S S C S L S S S A S S S S S S S S A S S S S S A S S S S S C S S S ",
"t > t t t t > t t t t > & & t t & u *.V.z.^ S K S S T L H H S H S S S S S S K S S A S S S S S L S S S S S S S L H S L L ",
"> y > d d > y < > y y > > y > t ; t O.P.x.Q D S S S S G G G C S S S S S C S S G G S S G G G S F S S S S S S N S G G G S ",
"= t & & & & > 4 > t & & & & t 4 , r @.E.z.W D S S S S S S S A S S S S S S S S S S S S S S S S C G G G S S S G S S H S C ",
"i t i i i i i t i i t i i i i t r i =.A.f./ G A S L I L L S L L Z S L S L L L L L L S L L L S L L L L L S L S I G L U L ",
"r r s r r r s r r r r : & & 8 r i t ;.H.j./ S K S L P L S H Y T L Y H T T T S H Y H H T A H T T T H T H H L H H L T ! ! ",
"+ + * * + + * + # + + + + + + + * @ ] A.z.b = d 1 d d d 1 1 f d d d 1 g 1 d d f f f d 1 d g d f f f f f f f 1 1 f f 1 1 ",
"0 0 0 0 0 0 0 0 0 0 0 9 9 0 0 0 0 w  .B.g._ l v x x v v v v v v v v v v v x v x v v v x x v v v v c x v c x c c v v v v ",
"<.<.<.<.<.<.<.<.<.<.<.1.1.2.2.2.-.y.k.L.C.u.3.h.3.3.6.6.4.4.4.7.6.6.6.6.6.6.5.3.5.7.6.6.3.7.6.7.7.7.7.7.7.7.7.7.6.6.6.j.",
"T.Q.T.T.T.Q.T.T.P.T.T.T.U.U.T.W.T.Q.~.~.Q.J.E.R.G.D.T.!.!.R.R.!.~.I.R.^.E.U.R./.(.D.R.R.Y.U.T.!.Y.R.R.T.T.T.T.T.J.D.Q.Q.",
"0.0.0.0.0.0.0.q.r.r.r.r.r.0.0.0.>.8.r.e.e.e.0.0.%.0.0.q.w.0.0.0.r.9.e.e.0.q.t.N.W.j.:.&.&.:.;.&.;.;.;.;.;.;.;.;. .&.%.+.",
"H J H H H J H J T Q T T Q T L K H H H S L S H H H J J T T H H H T H T T T H #.M.I.+.s u i y s p p u u p u a u y t y y y ",
"S S S C S S S S C C D C D G C C D D S S S S C B D D Z Z S S Z S S S A S S N R x.U.X.t & 6 ; ; > < < > & < > & < > > & & ",
"H K Y Y K Y Y K H H H S A H H H S H S K Y T T G S K K K K T P U F F T L U S ^ z.H.%.s i j > : y t t t 4 t 4 t t i i t t ",
"S S S L U S G L A T T H S A S S H H S S G L S A L K L T L P U G S G S S J C ^ z.J.&.t 4 5 4 8 i t t u t t u t t > t 4 d ",
"G S G G G G D S U U S U S S S L H C G G G S S S U S L G G G G S S G H S S A ^ p.J.&.s & 5 y r i i t t t t i i t t t > > ",
"S S S S A H S H S H S S S S S S G S H A H S T U S S S S G S S S L S ! U S N R g.Y.} d ; 4 t : i > > t > > & > > t r t t ",
"S S S S L S S S S S G S S S S G S S S L S G S S G L S S S S S S S L H J S S E g.D.=.t : y t t t t t t t t : t 4 t t t t ",
"S S S S G S S S S S S L S S S S S S S S S S S S S S S S S S S S S U C H S S E z.D.*.t : i t > t r t t t t t t t t t t t ",
"S S S S S S S S S S G S S S S S L S S S S S S S S S S L G S S S H U S G S S W x.D.+.t > t t t t t t 4 t : 4 t t > r t t ",
"S S S S S S L G S S L S G S L S S S G S S G S L S S S G S L S Z S U H S S S W f.D.%.t > i & > t t t > t t t t t 4 t t t ",
"S L S S S S G L S S S S S S S G G S S S S S S L S S S S S S S S H U H S L S E g.T.+.y r i t : t t t t > t t t t t t t t ",
"S G S S S S S S L G S S S S S S L S S S S S S G S S S S S S S S S G C G L S E f.T.*.t : t t t t t t r 4 t t 4 t 4 t t > ",
"S S S S G S S S S S S S S S S S S S S S S S S S G L S S S S S S S U S S S S E x.T.+.> > t t t t t t t t t > t r t t t t ",
"S S S S L S S S S S S S L G S S S S S U S S S S S S S S S S S S S U S G S G E x.D.+.t > i t > t t t t t t t t t t t t t ",
"L L L S L G L S L S L L L S L T L S L S L S L H L L ! S L S L S L S S L S S R x.R. .y > i t 4 t 4 t t 4 d 4 t t 4 t i 4 ",
"A S A A A S A A A A A A A A A A A A A A A A A A A A A A A S A A A A A A A N M z.Y. .r & 8 r r r % r 3 r r 2 3 3 r r r & ",
"d d d d d d d d d d d d d d d d d d d d d d d d d d d g d d d d d g f d d 1 n 7.T.e 7 o # 7 @ O # # @ # # # @ @ @ @ O @ ",
"t > > 4 < & t < t & > t > > t > t > t t > > t & t > t t > & t > & > & i t & x 7.D.e 2 $ X X X .   X     X       X X X   "
};
